<?xml version="1.0" encoding="UTF-8" standalone="no"?>
<!-- Created with Inkscape (http://www.inkscape.org/) -->

<svg
   xmlns:dc="http://purl.org/dc/elements/1.1/"
   xmlns:cc="http://creativecommons.org/ns#"
   xmlns:rdf="http://www.w3.org/1999/02/22-rdf-syntax-ns#"
   xmlns:svg="http://www.w3.org/2000/svg"
   xmlns="http://www.w3.org/2000/svg"
   xmlns:xlink="http://www.w3.org/1999/xlink"
   xmlns:sodipodi="http://sodipodi.sourceforge.net/DTD/sodipodi-0.dtd"
   xmlns:inkscape="http://www.inkscape.org/namespaces/inkscape"
   width="200"
   height="200"
   id="svg2"
   version="1.1"
   inkscape:version="0.48.3.1 r9886"
   inkscape:export-filename="D:\My documents\Publika\Logo\Taza_Icono_Fondo_naranja.png"
   inkscape:export-xdpi="90"
   inkscape:export-ydpi="90"
   sodipodi:docname="workitout_orange.svg">
  <defs
     id="defs4">
    <linearGradient
       id="linearGradient3755">
      <stop
         style="stop-color:#ff8000;stop-opacity:0.86301368;"
         offset="0"
         id="stop3757" />
      <stop
         style="stop-color:#c36912;stop-opacity:0.89726025;"
         offset="1"
         id="stop3759" />
    </linearGradient>
    <linearGradient
       inkscape:collect="always"
       xlink:href="#linearGradient3755"
       id="linearGradient3761"
       x1="83"
       y1="82"
       x2="98"
       y2="165.17104"
       gradientUnits="userSpaceOnUse"
       gradientTransform="matrix(1.0582011,0,0,1.0526316,-2.1164021,848.15165)" />
    <marker
       viewBox="0 0 10 10"
       refY="5"
       refX="10"
       orient="auto"
       markerWidth="4"
       markerUnits="strokeWidth"
       markerHeight="3"
       id="ArrowStart">
      <path
         id="path1780"
         d="M 10 0 L 0 5 L 10 10 z" />
    </marker>
    <marker
       viewBox="0 0 10 10"
       refY="5"
       refX="0"
       orient="auto"
       markerWidth="4"
       markerUnits="strokeWidth"
       markerHeight="3"
       id="ArrowEnd">
      <path
         id="path1777"
         d="M 0 0 L 10 5 L 0 10 z" />
    </marker>
    <inkscape:perspective
       id="perspective27"
       inkscape:persp3d-origin="177.261 : 154.54 : 1"
       inkscape:vp_z="354.522 : 231.81 : 1"
       inkscape:vp_y="0 : 1000 : 0"
       inkscape:vp_x="0 : 231.81 : 1"
       sodipodi:type="inkscape:persp3d" />
  </defs>
  <sodipodi:namedview
     id="base"
     pagecolor="#ffffff"
     bordercolor="#666666"
     borderopacity="1.0"
     inkscape:pageopacity="0.0"
     inkscape:pageshadow="2"
     inkscape:zoom="1"
     inkscape:cx="-79.71089"
     inkscape:cy="106.34776"
     inkscape:document-units="px"
     inkscape:current-layer="layer1"
     showgrid="false"
     borderlayer="true"
     inkscape:window-width="1280"
     inkscape:window-height="751"
     inkscape:window-x="0"
     inkscape:window-y="25"
     inkscape:window-maximized="1" />
  <g
     inkscape:label="Layer 1"
     inkscape:groupmode="layer"
     id="layer1"
     transform="translate(0,-852.36218)">
    <rect
       style="fill:url(#linearGradient3761);fill-opacity:1;stroke:none"
       id="rect2985"
       width="200"
       height="200"
       x="0"
       y="852.36218"
       ry="26.842106" />
    <g
       id="g1782"
       transform="matrix(0.40899937,0,0,0.40899937,26.739001,858.5519)"
       style="fill:#2b0000">
      <g
         id="g1784"
         style="fill:#2b0000">
        <g
           id="g1786"
           style="fill:#2b0000">
          <path
             style="fill:#2b0000;stroke:none"
             id="path1788"
             d="M 82.8818,97.304 C 109.752,97.304 131.533,75.52 131.533,48.653 131.533,21.784 109.752,0 82.8818,0 c -26.87,0 -48.653,21.784 -48.653,48.653 0,26.867 21.783,48.651 48.653,48.651 z"
             inkscape:connector-curvature="0" />
          <path
             style="fill:#2b0000;stroke:none"
             id="path1790"
             d="M 82.8818,48.653"
             inkscape:connector-curvature="0" />
        </g>
        <path
           style="fill:#2b0000;stroke:none"
           id="path1792"
           d="m 45.9178,156.487 c -8.75,-56 72.0002,-73 85.0002,-15.75 l 22,109.677 82.077,0.17 c 23.963,0 36.423,19.17 36.423,36.903 l 0,149.12 c 0,36.21 -51.562,36.04 -51.562,-0.649 0,-34.027 0,-116.052 0,-116.052 l -104.829,0 c -24.4422,0 -39.7782,-16.774 -43.6122,-35.944 L 45.9178,156.487 z"
           inkscape:connector-curvature="0" />
        <path
           style="fill:#2b0000;stroke:none"
           id="path1794"
           d="m 181.418,329.704 c 27.233,0 27.106,40.283 0.376,40.283 l -75.279,0 c -36.5972,0 -73.0972,-27.5 -82.6452,-70 l -23.451984,-114 c -4.752986,-25.883 32.499984,-34.5 37.999984,-8 l 22.24,109.063 c 6.23,27.797 26.838,42.654 51.7592,42.654 l 69.001,0 z"
           inkscape:connector-curvature="0" />
      </g>
      <g
         id="g1796"
         style="fill:#2b0000">
        <path
           style="fill:#2b0000;stroke:none"
           id="path1798"
           d="m 283.257,81.519 36.208,-17.547 c 5.219,-2.349 1.826,-9.917 -3.655,-7.489 l -30.765,13.855 0,-36.402 c 0,-5.716 -8.637,-5.454 -8.637,0 l 0.13,43.604 c 0,3.26 3.523,5.609 6.719,3.979 z"
           inkscape:connector-curvature="0" />
        <g
           id="g1800"
           style="fill:#2b0000">
          <path
             style="fill:#2b0000;stroke:none"
             id="path1802"
             d="m 283.399,144.281 c 39.281,0 71.123,-31.844 71.123,-71.125 0,-39.28 -31.842,-71.124 -71.123,-71.124 -39.281,0 -71.125,31.844 -71.125,71.124 0,39.281 31.844,71.125 71.125,71.125 z"
             inkscape:connector-curvature="0" />
          <path
             style="fill:#2b0000;stroke:none"
             id="path1804"
             d="M 283.399,73.156"
             inkscape:connector-curvature="0" />
        </g>
        <g
           id="g1806"
           style="fill:#2b0000">
          <path
             style="fill:#2b0000;stroke:none"
             id="path1808"
             d="m 283.399,132.201 c 32.609,0 59.044,-26.437 59.044,-59.045 0,-32.61 -26.435,-59.045 -59.044,-59.045 -32.608,0 -59.045,26.435 -59.045,59.045 0,32.608 26.437,59.045 59.045,59.045 z"
             inkscape:connector-curvature="0" />
          <path
             style="fill:#2b0000;stroke:none"
             id="path1810"
             d="M 283.399,73.156"
             inkscape:connector-curvature="0" />
        </g>
        <path
           style="fill:#2b0000;stroke:none"
           id="path1812"
           d="m 283.257,81.519 36.208,-17.547 c 5.219,-2.349 1.826,-9.917 -3.655,-7.489 l -30.765,13.855 0,-36.402 c 0,-5.716 -8.637,-5.454 -8.637,0 l 0.13,43.604 c 0,3.26 3.523,5.609 6.719,3.979 z"
           inkscape:connector-curvature="0" />
      </g>
    </g>
  </g>
  <metadata
     id="metadata14">
    <rdf:RDF>
      <cc:Work>
        <dc:format>image/svg+xml</dc:format>
        <dc:type
           rdf:resource="http://purl.org/dc/dcmitype/StillImage" />
        <cc:license
           rdf:resource="http://creativecommons.org/licenses/publicdomain/" />
        <dc:publisher>
          <cc:Agent
             rdf:about="http://openclipart.org/">
            <dc:title>Open Clip Art Library</dc:title>
          </cc:Agent>
        </dc:publisher>
        <dc:title></dc:title>
        <dc:date>2013-02-07T12:22:41</dc:date>
        <dc:description>White coffee mug with orange rounded square as a background</dc:description>
        <dc:source>http://openclipart.org/detail/174885/coffee-mug-icon---orange-background-by-angelascanio-174885</dc:source>
        <dc:creator>
          <cc:Agent>
            <dc:title>angelascanio</dc:title>
          </cc:Agent>
        </dc:creator>
        <dc:subject>
          <rdf:Bag>
            <rdf:li>Coffee</rdf:li>
            <rdf:li>mug</rdf:li>
            <rdf:li>coffee mug</rdf:li>
            <rdf:li>icon</rdf:li>
            <rdf:li>orange background</rdf:li>
          </rdf:Bag>
        </dc:subject>
      </cc:Work>
      <cc:License
         rdf:about="http://creativecommons.org/licenses/publicdomain/">
        <cc:permits
           rdf:resource="http://creativecommons.org/ns#Reproduction" />
        <cc:permits
           rdf:resource="http://creativecommons.org/ns#Distribution" />
        <cc:permits
           rdf:resource="http://creativecommons.org/ns#DerivativeWorks" />
      </cc:License>
    </rdf:RDF>
  </metadata>
</svg>
